<?xml version="1.0" encoding="utf-8"?>
<!-- Generator: Adobe Illustrator 24.0.0, SVG Export Plug-In . SVG Version: 6.00 Build 0)  -->
<svg version="1.1" id="Ebene_1" xmlns="http://www.w3.org/2000/svg" xmlns:xlink="http://www.w3.org/1999/xlink" x="0px" y="0px"
	 viewBox="0 0 100 100" style="enable-background:new 0 0 100 100;" xml:space="preserve">
<path d="M78.3,32.2c10.7,0.6,19,6.8,21.7,9.1c-0.5-1.6-3.6-11.1-13.7-15.9c-8.2-3.9-15.8-2.2-18.6-1.4c-5.1-4.5-12.3-6-18.7-3.9
	c-7.1,2.4-12.2,9-12.8,16.6c1.6-1.3,12.7-10.3,24.9-6.9c0.4,0.1,0.8,0.3,1.2,0.4c-3.6,0.6-9.2,2.3-14,7.1c-1.3,1.2-2.3,2.5-3.1,3.8
	c-1.2-0.5-2.4-0.9-3.8-1.2c-5.3-1.2-9.9-0.6-13.1,0.2c-3.1-0.7-8.3-1.2-14.1,0.6C5.8,43.3,1.6,49.2,0.4,51c2-1.7,7.4-5.8,15.6-6.5
	c2.1-0.2,4-0.1,5.7,0.1c-1.6,1.1-3.1,2.4-4.6,4c-5.6,6.4-6.3,13.5-6.4,15.6c0.8-2.4,3.3-8.6,9.7-13.2c3.4-2.4,6.7-3.6,9.1-4.2
	C33.1,48.7,37,51,41,53.9c6.6,4.9,11.6,9.9,15.3,14.2l0.1-0.1c0.2,4.7,0.9,8.8,1.5,12c3,0,6.1,0,9.1,0c-1-5.9-1.8-13.7-1.1-22.8
	c0.3-3.8,0.7-7.3,1.3-10.5c0.5,0.2,1,0.3,1.5,0.3c2.8,0,5.1-2.5,5.1-5.7c0-0.5-0.1-1-0.2-1.5c0.1,0,0.2,0.1,0.3,0.1
	c9,4,13.2,11.9,14.7,15.1c0.4-2.1,1.2-8.5-2.4-14.9C84.1,36.4,81.3,33.9,78.3,32.2z M43.4,44.2c-0.2,0.4-0.4,0.8-0.6,1.3
	c-0.8-0.5-1.6-1-2.5-1.5C41.5,43.9,42.5,44,43.4,44.2z M46.8,48.1c-0.4-0.3-0.8-0.6-1.2-0.9c0.7-0.7,1.5-1.4,2.4-2.1
	c3.9,1.3,6.7,3.1,8,4.1c-0.8-1-2.7-3.4-6-5.6c2.9-1.9,6.4-3.6,10.5-4.3c0.1,0,0.1,0,0.2,0c-1.6,4.4-3.2,10.1-4,16.8
	c0,0.1,0,0.1,0,0.2C53.8,53.6,50.6,50.8,46.8,48.1z"/>
</svg>
