<?xml version="1.0" encoding="utf-8"?>
<!-- Generator: Adobe Illustrator 24.0.0, SVG Export Plug-In . SVG Version: 6.00 Build 0)  -->
<svg version="1.1" id="Ebene_1" xmlns="http://www.w3.org/2000/svg" xmlns:xlink="http://www.w3.org/1999/xlink" x="0px" y="0px"
	 viewBox="0 0 1920 500" style="enable-background:new 0 0 1920 500;" xml:space="preserve">
<style type="text/css">
	.st0{fill:#773707;}
	.st1{fill:#339900;}
	.st2{fill:#A0863C;}
</style>
<g>
	<path class="st0" d="M271.6,358.4c-0.3-4.1-3.9-7.1-7.6-6.4l-1.1,0.2c0.6-16.2,1.2-32.4,1.8-48.7c0.1-3.5-3.1-6.3-6.8-6l-3.9,0.4
		c0.8-15.6,1.7-31.2,2.5-46.8c0.2-3.4-2.6-6.1-6-5.9l-0.8,0.1c1.5-14.6,2.9-29.2,4.4-43.8c0.3-3.4-2.3-6.2-5.7-6.1l-3.5,0.1
		c2-11.5,3.9-23,5.9-34.4c0.5-2.8-1.6-5.5-4.5-5.6l-42.8-1.6c-2.9-0.1-5.2,2.3-4.9,5.2c1.2,12.6,2.4,25.2,3.6,37.8l-3.7,0.1
		c-3.4,0.1-5.8,3.2-5.3,6.5c2.5,15.2,5.1,30.4,7.6,45.7l-0.1,0c-3.3,0.3-5.7,3.4-5,6.7c3.4,15.7,6.7,31.3,10.1,47l-3.6,0.4
		c-3.7,0.4-6.3,3.8-5.4,7.2c4.1,16.4,8.2,32.8,12.3,49.2c0.3,1.2,1,2.2,1.9,2.9l-1.9,0.4c-3.7,0.8-5.8,4.9-4.5,8.8
		c6.3,18.7,12.5,37.4,18.8,56.1c1.1,3.2,4.2,5.2,7.3,4.6l41-8.4c3.1-0.6,5.1-3.6,4.9-7.1C274.8,397.7,273.2,378,271.6,358.4z"/>
</g>
<path class="st1" d="M413.4,263.6c-13.7-18.2-41.9-50.6-88.6-73.9c-39.8-19.9-76.2-24.9-98-26.2c2.7-20.9,5.4-41.9,8.2-62.8
	c22.6,3.9,73.7,16.3,118.9,61.6C390.5,199.1,406.5,240.7,413.4,263.6z"/>
<path class="st1" d="M456.3,132.3c-21.6-10.4-62.1-26-113.3-22.9c-55.3,3.3-95.7,26.8-115.8,40.6c-2-25.6-4-51.1-5.9-76.7
	c21.6-8,72-22.7,133.5-4C404.7,84.5,439.1,114.8,456.3,132.3z"/>
<path class="st1" d="M40,284.8c12.3-19.1,37.4-52.8,80.8-80.9c47.9-31,93.6-39.3,116.6-41.9c-11.9-17.9-23.9-35.7-35.8-53.6
	c-21.9,6.2-71,23.5-111.6,72.2C57.1,220,44.9,262,40,284.8z"/>
<path class="st1" d="M72.1,1.1c20.2,7.7,56.1,24.2,89.6,58.7c36.2,37.3,51.7,76.9,58.3,97.9c14.7-13.9,29.3-27.7,44-41.6
	c-10.6-18.5-37.5-59.3-89.5-87.5C132.4,5.8,93.1,1.8,72.1,1.1z"/>
<path class="st1" d="M-1,139.2c19.2-9.3,55.6-23.9,103.6-25.7c51.9-1.9,91.7,12,111.7,20.5c-0.5-18.9-0.9-37.7-1.4-56.6
	c-20.8-4.1-69.2-10.9-124.9,7.6C42.8,100.2,13.5,125-1,139.2z"/>
<g>
	<path class="st1" d="M493.4,135h97.4c6.3,0,11.3,5.1,11.3,11.3v0.1c0,6.3-5.1,11.3-11.3,11.3h-68.5c-6.3,0-11.3,5.1-11.3,11.3V217
		c0,6.3,5.1,11.3,11.3,11.3h61.6c6.3,0,11.3,5.1,11.3,11.3v0c0,6.3-5.1,11.3-11.3,11.3h-61.6c-6.3,0-11.3,5.1-11.3,11.3v73.2
		c0,6.3-5.1,11.3-11.3,11.3h-6.3c-6.3,0-11.3-5.1-11.3-11.3V146.3C482.1,140,487.1,135,493.4,135z"/>
	<path class="st1" d="M659.6,275.8c-6.4,0-11.2,5.8-10.1,12.1c5.3,28.6,27.8,40.7,53.6,40.7c14.8,0,25.4-1.8,34.3-4.3
		c5.6-1.6,11.4,1.6,12.8,7.2v0c1.4,5.2-1.6,10.7-6.7,12.3c-10.5,3.3-25.3,6.3-44.3,6.3c-49.2,0-78.7-31.1-78.7-76.7
		c0-46.1,28.6-82.1,75.3-82.1c52.2,0,65.8,43.5,65.8,71.5c0,1.1,0,2.1,0,3c-0.1,5.5-4.7,10-10.2,10H659.6z M733.5,255.9
		c0.3-17.4-7.5-44.8-40.1-44.8c-29.7,0-42.3,25.5-44.7,44.8H733.5z"/>
	<path class="st1" d="M830.3,151.8c0,9.4-6.9,17.2-18.5,17.2c-10.5,0-17.6-7.8-17.6-17.2c0-9.5,7.4-17.2,18.1-17.2
		C823.2,134.6,830.3,142.2,830.3,151.8z M797.8,332.4V209.3c0-8,6.5-14.5,14.5-14.5l0,0c8,0,14.5,6.5,14.5,14.5v123.1
		c0,8-6.5,14.5-14.5,14.5l0,0C804.3,346.8,797.8,340.4,797.8,332.4z"/>
	<path class="st1" d="M902.7,275.8c-6.4,0-11.2,5.8-10.1,12.1c5.3,28.6,27.8,40.7,53.6,40.7c14.8,0,25.4-1.8,34.3-4.3
		c5.6-1.6,11.4,1.6,12.8,7.2l0,0c1.4,5.2-1.6,10.7-6.7,12.3c-10.5,3.3-25.3,6.3-44.3,6.3c-49.2,0-78.7-31.1-78.7-76.7
		c0-46.1,28.6-82.1,75.3-82.1c52.2,0,65.8,43.5,65.8,71.5c0,1.1,0,2.1,0,3c-0.1,5.5-4.7,10-10.2,10H902.7z M976.7,255.9
		c0.3-17.4-7.5-44.8-40.1-44.8c-29.7,0-42.3,25.5-44.7,44.8H976.7z"/>
	<path class="st1" d="M1040.9,242.2c0-14.4-0.3-27.1-0.9-38.9c-0.2-4.6,3.4-8.4,8-8.4h9.2c4.3,0,7.9,3.4,8.1,7.8l0.8,22.1h1
		c7.5-20.4,25.1-33.3,44.6-33.3c0,0,0.1,0,0.1,0c4.4,0,8,3.6,8,8.1v9.9c0,4.5-3.7,8.1-8.2,8.1c-0.5,0-1.1,0-1.7,0
		c-20.5,0-35,14.7-38.9,35.4c-0.8,3.9-1.2,8.4-1.2,12.9v73.2c0,4.5-3.6,8.1-8.1,8.1H1049c-4.5,0-8.1-3.6-8.1-8.1V242.2z"/>
	<path class="st1" d="M1192,164.5v19.9c0,5.8,4.7,10.5,10.5,10.5h20.9c5.8,0,10.5,4.7,10.5,10.5v0c0,5.8-4.7,10.5-10.5,10.5h-20.9
		c-5.8,0-10.5,4.7-10.5,10.5v71.5c0,18.9,5.7,29.6,22,29.6c2.3,0,4.4-0.1,6.3-0.2c5.8-0.4,10.9,3.9,11.3,9.8l0.1,0.9
		c0.3,5.3-3.3,10-8.5,11c-4.8,0.9-10.5,1.4-16.9,1.4c-13.4,0-24.5-4.2-31.4-11.7c-8-8.4-11.3-21.8-11.3-39.7v-72.5
		c0-5.8-4.7-10.5-10.5-10.5h-3.8c-5.8,0-10.5-4.7-10.5-10.5v0c0-5.8,4.7-10.5,10.5-10.5h3.8c5.8,0,10.5-4.7,10.5-10.5v-18
		c0-4.8,3.3-9,7.9-10.2l7.6-1.9C1185.6,152.7,1192,157.7,1192,164.5z"/>
	<path class="st1" d="M1358.1,346.8c-1.6,0-3-1.2-3.2-2.8l-2.2-16.4h-0.9c-8.8,11.9-26,22.7-48.9,22.7c-32.3,0-48.9-21.8-48.9-43.6
		c0-36.2,33.2-56.3,92.9-56.6c1.8,0,3.2-1.4,3.2-3.2l0,0c0-12.4-3.7-35.2-36.4-35.1c-13.5,0-27.6,3.5-38.4,9.4
		c-1.7,0.9-3.9,0.1-4.6-1.7l-4.4-12.2c-0.5-1.5,0.1-3.1,1.5-3.9c13.1-7.3,31.4-11.9,50.4-11.9c48.9,0,60.8,31.8,60.8,62.2v56.9
		c0,13,0.6,25.9,2.4,36.4c0,0,0,0,0,0L1358.1,346.8z M1350.8,269.2c-31.5-0.6-67.5,4.7-67.5,34.1c0,18.1,12.6,26.5,27.2,26.5
		c21.1,0,34.4-12.6,39-25.5c1-2.9,1.4-6.1,1.4-8.7V269.2z"/>
	<path class="st1" d="M1552.2,194.8c6.4,0,11.5,5.3,11.2,11.7c-0.4,8.2-0.6,17.7-0.6,29.9v88.3c0,35.2-7.6,56.3-22.8,69.6
		c-15.7,13.7-38.1,18.2-58.3,18.2c-15.1,0-31.2-2.6-43.8-7.7c-5.5-2.2-8.4-8.4-6.5-14l0-0.1c2.1-6.1,8.9-9.1,14.9-6.7
		c9.8,4,22.2,6.9,36.3,6.9c29.7,0,51.5-14.8,51.5-53.3v-16.9h-0.7c-8.7,14.3-26.2,25.6-50.8,25.6c-39.9,0-68.2-32.2-68.2-74.4
		c0-51.6,35.3-80.6,72.2-80.6c27.8,0,42.8,13.6,49.9,26.2h0.7l0.6-12.2c0.3-5.9,5.2-10.6,11.2-10.6H1552.2z M1533.8,254.6
		c0-4.5-0.4-8.6-1.6-12.4c-5.4-16.1-19.4-29.4-40.9-29.4c-27.8,0-47.7,22.3-47.7,57.6c0,29.7,16.2,54.8,47.4,54.8
		c18.1,0,34.2-10.8,40.5-28.5c1.5-4.5,2.3-9.9,2.3-14.7V254.6z"/>
	<path class="st1" d="M1638.5,275.8c-6.4,0-11.2,5.8-10.1,12.1c5.3,28.6,27.8,40.7,53.6,40.7c14.8,0,25.4-1.8,34.3-4.3
		c5.6-1.6,11.4,1.6,12.8,7.2v0c1.4,5.2-1.6,10.7-6.7,12.3c-10.5,3.3-25.3,6.3-44.3,6.3c-49.2,0-78.7-31.1-78.7-76.7
		c0-46.1,28.6-82.1,75.3-82.1c52.2,0,65.8,43.5,65.8,71.5c0,1.1,0,2.1,0,3c-0.1,5.5-4.7,10-10.2,10H1638.5z M1712.4,255.9
		c0.3-17.4-7.5-44.8-40.1-44.8c-29.7,0-42.3,25.5-44.7,44.8H1712.4z"/>
</g>
<path class="st2" d="M1863.1,462.2c-16.9-7.4-26.3,4.1-48.9-4c-14.4-5.2-17.1-11.8-34-16.7c-11.6-3.4-21.9-3.5-28.7-3.2H376.3
	c-8.1-1.5-20.7-4-36.1-7.4c-63.2-14-77.1-22.5-97.8-14.9c-15.5,5.7-12.9,12.3-37.2,23.4c-19,8.6-31.7,9.7-43.6,12.8
	c-18.1,4.7-42.6,16.4-69.1,47.8h258.2h34h1366.8h1H1895C1890.2,487.4,1881.1,470.1,1863.1,462.2z"/>
<path class="st1" d="M226.7,163.4c21.8,1.3,58.3,6.4,98.3,26.6c46.4,23.5,74.4,55.8,88,74c-5.7-21.2-20-62.6-57-100
	c-23-23.3-47-37-64-45c15.5-4.8,35.9-9.4,60-10c47.1-1.2,83.9,13.2,104,23c-14.2-15.2-55.7-55.7-123-68c-45.5-8.3-82.9,0-103,6
	c-12.8-13-32.5-30-60-44C130.2,5.7,93.4,1.7,72,1c18.1,7.1,41.8,18.7,66,38c14.5,11.6,26,23.4,35,34c-19.7-0.8-50.2,0.4-85,12
	c-44,14.8-73.6,39.2-89,54c20-9.6,52.4-22,94-25c31.6-2.3,58.1,1.7,77,6c-18.7,8.6-48,25-75,55c-38.3,42.4-50.6,88.3-55,110
	c13.6-21.3,42.4-60,93-89C169.7,174.9,204.1,166.8,226.7,163.4z"/>
</svg>
